<svg width="256" height="256" viewBox="0 0 256 256" fill="none" xmlns="http://www.w3.org/2000/svg">
<path fill-rule="evenodd" clip-rule="evenodd" d="M203.306 51.5273C209.933 51.5273 215.306 56.8999 215.306 63.5273C215.306 68.9403 211.721 73.5145 206.797 75.0098C206.515 78.1921 205.168 81.2031 202.95 83.542L202.877 83.6191L196.928 89.5684C190.836 95.6619 182.399 106.304 179.19 113.146C176.231 119.457 176.334 123.614 176.521 131.219C176.574 133.357 176.634 135.767 176.634 138.574C176.634 156.953 175.933 174.581 188.927 187.58L194.871 193.524L194.939 193.596C197.497 196.283 198.904 199.864 198.86 203.573C198.85 204.468 198.754 205.352 198.579 206.217C198.819 206.202 199.062 206.194 199.306 206.194C205.933 206.194 211.306 211.567 211.306 218.194C211.306 224.822 205.933 230.194 199.306 230.194C192.678 230.194 187.306 224.822 187.306 218.194C187.306 217.917 187.316 217.642 187.334 217.37C186.514 217.529 185.676 217.617 184.83 217.629C181.121 217.68 177.538 216.28 174.846 213.728L174.769 213.654L168.819 207.705C155.819 194.707 146.186 187.404 127.802 187.404C109.418 187.404 99.7865 194.706 86.7861 207.703L80.9346 213.571C79.6149 214.893 78.0444 215.946 76.3193 216.662C75.1351 217.154 73.8922 217.482 72.625 217.641C72.6333 217.824 72.6387 218.009 72.6387 218.194C72.6387 224.822 67.2661 230.194 60.6387 230.194C54.0113 230.194 48.6387 224.822 48.6387 218.194C48.6387 212.831 52.1567 208.291 57.0107 206.753C56.7658 205.702 56.6397 204.624 56.6387 203.539C56.6369 201.671 57.0036 199.82 57.7168 198.094C58.43 196.367 59.4764 194.799 60.7959 193.477L66.6758 187.597C79.6747 174.597 78.9775 156.966 78.9775 138.583C78.9775 135.941 79.0375 133.614 79.0938 131.423C79.1769 128.186 79.2524 125.245 79.1162 122.024C78.907 117.076 78.1802 112.906 76.417 109.146C75.1162 106.373 72.6527 103.29 69.251 99.7988C67.595 98.0991 65.8377 96.4205 64.0234 94.7041C63.8025 94.4951 63.58 94.2845 63.3564 94.0732C61.7877 92.5908 60.1655 91.0589 58.6797 89.5732L58.6758 89.5684L52.7354 83.6455L52.6631 83.5703C50.4054 81.1982 49.0441 78.1302 48.7861 74.8916C44.0492 73.2862 40.6387 68.8066 40.6387 63.5273C40.6387 56.9 46.0114 51.5275 52.6387 51.5273C57.8795 51.5273 62.3326 54.8882 63.9678 59.5713C67.2445 59.8018 70.3551 61.1606 72.7568 63.4375L72.834 63.5107L78.7832 69.46C91.7831 82.4531 109.412 89.7529 127.793 89.7529C146.174 89.7529 163.802 82.4542 176.802 69.4609L182.746 63.5166L182.818 63.4482C185.31 61.0775 188.568 59.6959 191.985 59.542C193.629 54.8739 198.076 51.5273 203.306 51.5273ZM106.763 141.108C101.99 141.108 98.1204 144.977 98.1201 149.75V159.627C98.1201 164.4 101.99 168.269 106.763 168.269H116.639C121.412 168.269 125.281 164.4 125.281 159.627V149.75C125.281 144.977 121.411 141.108 116.639 141.108H106.763ZM138.861 141.108C134.089 141.108 130.219 144.977 130.219 149.75V159.627C130.219 164.4 134.089 168.269 138.861 168.269H148.737C153.51 168.269 157.38 164.4 157.38 159.627V149.75C157.38 144.977 153.51 141.108 148.737 141.108H138.861ZM106.763 109.01C101.99 109.01 98.1203 112.879 98.1201 117.651V127.528C98.1201 132.301 101.99 136.17 106.763 136.17H116.639C121.412 136.17 125.281 132.301 125.281 127.528V117.651C125.281 112.879 121.411 109.01 116.639 109.01H106.763ZM138.861 109.01C134.089 109.01 130.219 112.879 130.219 117.651V127.528C130.219 132.301 134.089 136.17 138.861 136.17H148.737C153.51 136.17 157.38 132.301 157.38 127.528V117.651C157.38 112.879 153.51 109.01 148.737 109.01H138.861Z" fill="#333333"/>
<path d="M127.75 25.75C142.478 25.75 154.417 37.6894 154.417 52.417C154.417 67.1444 142.477 79.083 127.75 79.083C113.023 79.083 101.083 67.1444 101.083 52.417C101.083 37.6894 113.022 25.75 127.75 25.75Z" fill="#333333"/>
</svg>
